<?xml version="1.0"?>
<svg xmlns="http://www.w3.org/2000/svg" width="205" height="332" viewBox="0 0 205 332"><g opacity="0.5" transform="translate(47.60,220.00) scale(0.1)"><path d="M732-1846Q770-1868 794-1840Q817-1812 790-1784L790-1784L587-1612Q551-1595 530-1627Q508-1658 543-1687L543-1687L732-1846ZM359-1599Q407-1597 425-1545L425-1545L790-347L790-1442Q792-1523 840-1563Q888-1602 942-1600L942-1600Q1028-1600 1073-1528Q1117-1455 1117-1407L1117-1407Q1125-1360 1088-1353Q1050-1346 1035-1386L1035-1386Q1023-1421 1005-1466Q986-1510 944-1510L944-1510Q918-1508 899-1492Q880-1476 880-1440L880-1440L880-55Q880-2 841 0Q801 2 786-55L786-55L400-1286L400-206Q402-120 364-60Q326 1 243 2L243 2Q167 0 94-87Q20-174-7-271L-7-271Q-28-309 3-331Q33-352 58-319L58-319Q85-264 143-176Q201-88 244-90L244-90Q282-90 299-127Q315-163 310-209L310-209L310-1533Q311-1601 359-1599Z" fill="#d8232a"></path><circle cx="380" cy="-200" r="56" fill="#d8232a" stroke="#fff" stroke-width="30" paint-order="stroke"></circle><line x1="373.8" y1="-183.1" x2="414.9" y2="-295.8" stroke="#fff" stroke-width="64" stroke-linecap="round"></line><line x1="373.8" y1="-183.1" x2="414.9" y2="-295.8" stroke="#d8232a" stroke-width="28" stroke-linecap="round"></line><path d="M458.7 -416.1 L490.1 -268.5 L339.7 -323.2 Z" fill="#d8232a" stroke="#fff" stroke-width="36" stroke-linejoin="round" paint-order="stroke"></path><path d="M430.0 -1300.0 L466.5 -1153.5 L314.4 -1203.0 Z" fill="#d8232a" stroke="#fff" stroke-width="36" stroke-linejoin="round" paint-order="stroke"></path><path d="M620.0 -700.0 L515.1 -808.6 L671.6 -841.8 Z" fill="#d8232a" stroke="#fff" stroke-width="36" stroke-linejoin="round" paint-order="stroke"></path><path d="M870.0 -1250.0 L950.0 -1122.0 L790.0 -1122.0 Z" fill="#d8232a" stroke="#fff" stroke-width="36" stroke-linejoin="round" paint-order="stroke"></path><path d="M660.0 -1720.0 L554.5 -1725.5 L618.7 -1817.3 Z" fill="#d8232a" stroke="#fff" stroke-width="25.2" stroke-linejoin="round" paint-order="stroke"></path></g></svg>