<svg xmlns="http://www.w3.org/2000/svg" viewBox="0 0 200 200">
  <path d="M55 70 L48 30 L88 58 Z" fill="#8a8f99"/>
  <path d="M145 70 L152 30 L112 58 Z" fill="#8a8f99"/>
  <path d="M58 64 L55 44 L80 58 Z" fill="#f7b8c4"/>
  <path d="M142 64 L145 44 L120 58 Z" fill="#f7b8c4"/>
  <ellipse cx="100" cy="108" rx="58" ry="52" fill="#9aa0aa"/>
  <ellipse cx="80" cy="100" rx="9" ry="12" fill="#2b2f36"/>
  <ellipse cx="120" cy="100" rx="9" ry="12" fill="#2b2f36"/>
  <path d="M94 120 L106 120 L100 128 Z" fill="#f7b8c4"/>
  <path d="M100 128 Q100 138 90 140 M100 128 Q100 138 110 140" stroke="#2b2f36" stroke-width="3" fill="none" stroke-linecap="round"/>
  <g stroke="#2b2f36" stroke-width="2.5" stroke-linecap="round">
    <line x1="70" y1="122" x2="40" y2="116"/>
    <line x1="70" y1="128" x2="40" y2="130"/>
    <line x1="130" y1="122" x2="160" y2="116"/>
    <line x1="130" y1="128" x2="160" y2="130"/>
  </g>
</svg>
