<?xml version="1.0"?>
<svg xmlns="http://www.w3.org/2000/svg" width="195" height="332" viewBox="0 0 195 332"><line x1="0" y1="60.0" x2="195" y2="60.0" stroke="#cfe0ef" stroke-width="2"></line><line x1="0" y1="140.0" x2="195" y2="140.0" stroke="#cfe0ef" stroke-width="2"></line><line x1="0" y1="220.0" x2="195" y2="220.0" stroke="#9db8d2" stroke-width="3"></line><line x1="0" y1="290.0" x2="195" y2="290.0" stroke="#cfe0ef" stroke-width="2"></line><g opacity="0.5" transform="translate(46.00,220.00) scale(0.1)"><path d="M545-1600Q590-1600 590-1550L590-1550L590-182Q592-137 626-113Q660-88 700-90L700-90Q768-87 846-177Q923-267 950-342L950-342Q980-379 1010-365Q1039-351 1026-309L1026-309Q1000-211 905-109Q810-7 700 0L700 0Q611-3 572-36Q532-69 500-111L500-111Q484-81 432-41Q379 0 300 0L300 0Q160-5 83-106Q6-206 0-400L0-400Q4-561 72-677Q139-792 300-800L300-800Q367-801 419-775Q471-749 500-701L500-701L500-1550Q500-1600 545-1600ZM300-710Q193-710 143-616Q93-521 90-400L90-400Q85-281 157-184Q228-86 300-90L300-90Q393-92 449-188Q504-283 500-400L500-400Q502-536 446-626Q390-715 300-710L300-710Z" fill="#1b1b1b"></path><circle cx="490" cy="-720" r="56" fill="#1b1b1b" stroke="#fff" stroke-width="30" paint-order="stroke"></circle><line x1="506.9" y1="-713.8" x2="394.2" y2="-754.9" stroke="#fff" stroke-width="64" stroke-linecap="round"></line><line x1="506.9" y1="-713.8" x2="394.2" y2="-754.9" stroke="#1b1b1b" stroke-width="28" stroke-linecap="round"></line><path d="M273.9 -798.7 L421.5 -830.1 L366.8 -679.7 Z" fill="#1b1b1b" stroke="#fff" stroke-width="36" stroke-linejoin="round" paint-order="stroke"></path><path d="M85.0 -410.0 L5.0 -538.0 L165.0 -538.0 Z" fill="#1b1b1b" stroke="#fff" stroke-width="36" stroke-linejoin="round" paint-order="stroke"></path><path d="M285.0 -62.0 L169.4 35.0 L147.1 -123.4 Z" fill="#1b1b1b" stroke="#fff" stroke-width="36" stroke-linejoin="round" paint-order="stroke"></path><path d="M556.0 -1250.0 L631.5 -1119.3 L471.6 -1124.9 Z" fill="#1b1b1b" stroke="#fff" stroke-width="36" stroke-linejoin="round" paint-order="stroke"></path><path d="M560.0 -300.0 L480.0 -428.0 L640.0 -428.0 Z" fill="#1b1b1b" stroke="#fff" stroke-width="36" stroke-linejoin="round" paint-order="stroke"></path></g></svg>