<?xml version="1.0"?>
<svg xmlns="http://www.w3.org/2000/svg" width="148" height="332" viewBox="0 0 148 332"><line x1="0" y1="60.0" x2="148" y2="60.0" stroke="#cfe0ef" stroke-width="2"></line><line x1="0" y1="140.0" x2="148" y2="140.0" stroke="#cfe0ef" stroke-width="2"></line><line x1="0" y1="220.0" x2="148" y2="220.0" stroke="#9db8d2" stroke-width="3"></line><line x1="0" y1="290.0" x2="148" y2="290.0" stroke="#cfe0ef" stroke-width="2"></line><g opacity="0.5" transform="translate(46.00,220.00) scale(0.1)"><path d="M352-1184Q390-1207 414-1179Q437-1151 410-1122L410-1122L207-951Q171-934 150-965Q129-996 163-1025L163-1025L352-1184ZM280-800L280-800Q420-798 490-699Q560-600 560-400L560-400Q560-200 490-101Q420-2 280 0L280 0Q140 0 70-100Q0-200 0-400L0-400Q0-600 70-699Q140-797 280-800ZM280-710L280-710Q191-710 141-641Q90-572 90-400L90-400Q90-236 141-163Q191-90 280-90L280-90Q371-90 421-153Q470-215 470-400L470-400Q470-572 421-641Q371-710 280-710Z" fill="#d8232a"></path><circle cx="300" cy="-745" r="56" fill="#d8232a" stroke="#fff" stroke-width="30" paint-order="stroke"></circle><line x1="317.9" y1="-743.1" x2="198.6" y2="-755.7" stroke="#fff" stroke-width="64" stroke-linecap="round"></line><line x1="317.9" y1="-743.1" x2="198.6" y2="-755.7" stroke="#d8232a" stroke-width="28" stroke-linecap="round"></line><path d="M71.3 -769.0 L206.9 -835.2 L190.2 -676.1 Z" fill="#d8232a" stroke="#fff" stroke-width="36" stroke-linejoin="round" paint-order="stroke"></path><path d="M82.0 -400.0 L2.0 -528.0 L162.0 -528.0 Z" fill="#d8232a" stroke="#fff" stroke-width="36" stroke-linejoin="round" paint-order="stroke"></path><path d="M280.0 -60.0 L152.0 20.0 L152.0 -140.0 Z" fill="#d8232a" stroke="#fff" stroke-width="36" stroke-linejoin="round" paint-order="stroke"></path><path d="M476.0 -400.0 L556.0 -272.0 L396.0 -272.0 Z" fill="#d8232a" stroke="#fff" stroke-width="36" stroke-linejoin="round" paint-order="stroke"></path><path d="M380.0 -1130.0 L289.6 -1134.7 L344.6 -1213.4 Z" fill="#d8232a" stroke="#fff" stroke-width="21.599999999999998" stroke-linejoin="round" paint-order="stroke"></path></g></svg>