<svg width="227" height="188" viewBox="0 0 227 188" fill="none" xmlns="http://www.w3.org/2000/svg">
<path d="M106.291 182.176C101.341 182.176 97.2025 181.323 93.8745 179.616C90.5465 177.824 88.0292 175.221 86.3225 171.808C84.7012 168.309 83.8905 163.957 83.8905 158.752V117.408C83.8905 116.299 84.3172 115.488 85.1705 114.976C86.1092 114.379 87.4745 114.08 89.2665 114.08C91.1438 114.08 92.5518 114.379 93.4905 114.976C94.4292 115.488 94.8985 116.299 94.8985 117.408V158.752C94.8985 161.739 95.3678 164.256 96.3065 166.304C97.2452 168.352 98.6532 169.888 100.531 170.912C102.493 171.936 104.883 172.448 107.699 172.448C110.088 172.448 112.307 172.064 114.355 171.296C116.403 170.528 118.237 169.504 119.859 168.224C121.565 166.859 123.059 165.237 124.339 163.36C125.619 161.483 126.685 159.477 127.539 157.344V117.408C127.539 116.299 127.965 115.488 128.819 114.976C129.757 114.379 131.165 114.08 133.043 114.08C134.835 114.08 136.2 114.379 137.139 114.976C138.077 115.488 138.547 116.299 138.547 117.408V167.712C138.547 168.907 138.717 169.888 139.059 170.656C139.4 171.424 139.869 171.979 140.467 172.32C141.149 172.661 141.875 172.832 142.643 172.832C143.411 172.832 144.093 172.704 144.691 172.448C145.373 172.107 146.013 171.68 146.611 171.168C147.293 170.656 147.933 170.187 148.531 169.76C149.213 169.248 149.939 169.12 150.707 169.376C151.56 169.632 152.328 170.229 153.011 171.168C153.437 171.765 153.736 172.491 153.907 173.344C154.077 174.197 153.864 175.008 153.267 175.776C152.413 177.056 151.304 178.208 149.939 179.232C148.573 180.171 147.08 180.939 145.459 181.536C143.837 182.133 142.173 182.432 140.467 182.432C138.419 182.432 136.627 182.133 135.091 181.536C133.64 181.024 132.403 180.256 131.379 179.232C130.355 178.208 129.544 177.013 128.947 175.648C128.349 174.283 127.965 172.789 127.795 171.168L127.667 170.016C126.472 171.893 125.107 173.6 123.571 175.136C122.12 176.587 120.499 177.867 118.707 178.976C116.915 180 114.952 180.768 112.819 181.28C110.771 181.877 108.595 182.176 106.291 182.176Z" fill="black" opacity="0.08"/>
<path d="M133.5 123V122.5H132.5V123H133H133.5ZM133 158H132.5V158.021L132.502 158.042L133 158ZM133.677 170.382C133.888 170.56 134.203 170.534 134.382 170.323L137.288 166.888C137.467 166.677 137.441 166.361 137.23 166.183C137.019 166.005 136.703 166.031 136.525 166.242L133.941 169.295L130.888 166.712C130.677 166.533 130.361 166.559 130.183 166.77C130.005 166.981 130.031 167.297 130.242 167.475L133.677 170.382ZM133 123H132.5V138.5H133H133.5V123H133ZM133 138.5H132.5V158H133H133.5V138.5H133ZM133 158L132.502 158.042L133.502 170.042L134 170L134.498 169.958L133.498 157.958L133 158Z" fill="#86E96A"/>
<path d="M89.5 123V122.5H88.5V123H89H89.5ZM89 157.5H88.5V157.552L88.5107 157.603L89 157.5ZM90.7269 167.419C90.9582 167.57 91.268 167.504 91.4188 167.273L93.877 163.504C94.0279 163.273 93.9626 162.963 93.7313 162.812C93.5 162.661 93.1902 162.726 93.0394 162.958L90.8543 166.308L87.5039 164.123C87.2726 163.972 86.9628 164.037 86.8119 164.269C86.6611 164.5 86.7263 164.81 86.9576 164.961L90.7269 167.419ZM89 123H88.5V138.5H89H89.5V123H89ZM89 138.5H88.5V157.5H89H89.5V138.5H89ZM89 157.5L88.5107 157.603L90.5107 167.103L91 167L91.4893 166.897L89.4893 157.397L89 157.5Z" fill="#86E96A"/>
<path d="M95.92 171.995C95.92 173.097 95.0425 173.99 93.96 173.99C92.8775 173.99 92 173.097 92 171.995C92 170.893 92.8775 170 93.96 170C95.0425 170 95.92 170.893 95.92 171.995Z" fill="#A6A6A1"/>
<path d="M110.92 176.995C110.92 178.097 110.042 178.99 108.96 178.99C107.878 178.99 107 178.097 107 176.995C107 175.893 107.878 175 108.96 175C110.042 175 110.92 175.893 110.92 176.995Z" fill="#A6A6A1"/>
<path d="M124.92 169.995C124.92 171.097 124.042 171.99 122.96 171.99C121.878 171.99 121 171.097 121 169.995C121 168.893 121.878 168 122.96 168C124.042 168 124.92 168.893 124.92 169.995Z" fill="#A6A6A1"/>
<path d="M137.92 174.995C137.92 176.097 137.042 176.99 135.96 176.99C134.878 176.99 134 176.097 134 174.995C134 173.893 134.878 173 135.96 173C137.042 173 137.92 173.893 137.92 174.995Z" fill="#A6A6A1"/>
<path d="M150.92 174.995C150.92 176.097 150.042 176.99 148.96 176.99C147.878 176.99 147 176.097 147 174.995C147 173.893 147.878 173 148.96 173C150.042 173 150.92 173.893 150.92 174.995Z" fill="#A6A6A1"/>
<path d="M134.92 157.995C134.92 159.097 134.042 159.99 132.96 159.99C131.878 159.99 131 159.097 131 157.995C131 156.893 131.878 156 132.96 156C134.042 156 134.92 156.893 134.92 157.995Z" fill="#A6A6A1"/>
<path d="M134.92 137.995C134.92 139.097 134.042 139.99 132.96 139.99C131.878 139.99 131 139.097 131 137.995C131 136.893 131.878 136 132.96 136C134.042 136 134.92 136.893 134.92 137.995Z" fill="#A6A6A1"/>
<path d="M90.92 121.995C90.92 123.097 90.0425 123.99 88.96 123.99C87.8775 123.99 87 123.097 87 121.995C87 120.893 87.8775 120 88.96 120C90.0425 120 90.92 120.893 90.92 121.995Z" fill="#86E96A"/>
<path d="M90.92 137.995C90.92 139.097 90.0425 139.99 88.96 139.99C87.8775 139.99 87 139.097 87 137.995C87 136.893 87.8775 136 88.96 136C90.0425 136 90.92 136.893 90.92 137.995Z" fill="#A6A6A1"/>
<path d="M90.92 157.995C90.92 159.097 90.0425 159.99 88.96 159.99C87.8775 159.99 87 159.097 87 157.995C87 156.893 87.8775 156 88.96 156C90.0425 156 90.92 156.893 90.92 157.995Z" fill="#A6A6A1"/>
<path d="M134.92 121.995C134.92 123.097 134.042 123.99 132.96 123.99C131.878 123.99 131 123.097 131 121.995C131 120.893 131.878 120 132.96 120C134.042 120 134.92 120.893 134.92 121.995Z" fill="#86E96A"/>
</svg>
