<svg width="227" height="188" viewBox="0 0 227 188" fill="none" xmlns="http://www.w3.org/2000/svg">
<path d="M113.418 182.432C107.018 182.432 101.258 181.621 96.138 180C91.1033 178.464 86.7513 176.203 83.082 173.216C79.498 170.144 76.7247 166.389 74.762 161.952C72.8847 157.429 71.946 152.309 71.946 146.592C71.946 143.264 72.5007 139.936 73.61 136.608C74.7193 133.28 76.3833 130.08 78.602 127.008C80.906 123.936 83.722 121.163 87.05 118.688C90.4633 116.213 94.474 114.123 99.082 112.416C94.8153 110.368 91.018 107.851 87.69 104.864C84.4473 101.877 81.93 98.464 80.138 94.624C78.346 90.6987 77.45 86.3893 77.45 81.696C77.45 76.576 78.346 72.1387 80.138 68.384C82.0153 64.6293 84.5753 61.5147 87.818 59.04C91.146 56.5653 94.986 54.7307 99.338 53.536C103.775 52.256 108.511 51.616 113.546 51.616C118.581 51.616 123.231 52.2133 127.498 53.408C131.85 54.6027 135.647 56.4373 138.89 58.912C142.133 61.3867 144.65 64.5013 146.442 68.256C148.319 71.9253 149.258 76.32 149.258 81.44C149.258 84.256 148.831 87.072 147.978 89.888C147.125 92.6187 145.845 95.3067 144.138 97.952C142.431 100.512 140.213 102.901 137.482 105.12C134.837 107.339 131.637 109.259 127.882 110.88C133.258 113.099 137.951 115.957 141.962 119.456C145.973 122.869 149.087 126.837 151.306 131.36C153.525 135.797 154.634 140.747 154.634 146.208C154.634 151.84 153.653 156.875 151.69 161.312C149.813 165.749 147.082 169.547 143.498 172.704C139.914 175.861 135.605 178.293 130.57 180C125.535 181.621 119.818 182.432 113.418 182.432ZM113.418 172.064C118.026 172.064 122.122 171.509 125.706 170.4C129.375 169.291 132.447 167.669 134.922 165.536C137.482 163.317 139.445 160.629 140.81 157.472C142.175 154.229 142.858 150.517 142.858 146.336C142.858 141.643 141.578 137.419 139.018 133.664C136.543 129.909 133.002 126.667 128.394 123.936C123.786 121.12 118.282 118.773 111.882 116.896C107.53 118.261 103.605 119.968 100.106 122.016C96.6927 123.979 93.7487 126.283 91.274 128.928C88.7993 131.488 86.922 134.261 85.642 137.248C84.362 140.149 83.722 143.264 83.722 146.592C83.722 150.773 84.4047 154.485 85.77 157.728C87.1353 160.885 89.098 163.531 91.658 165.664C94.3033 167.797 97.418 169.419 101.002 170.528C104.671 171.552 108.81 172.064 113.418 172.064ZM115.082 106.784C119.775 105.419 123.786 103.541 127.114 101.152C130.527 98.6773 133.13 95.776 134.922 92.448C136.714 89.12 137.61 85.4507 137.61 81.44C137.61 78.112 136.97 75.2107 135.69 72.736C134.495 70.2613 132.789 68.256 130.57 66.72C128.437 65.0987 125.877 63.904 122.89 63.136C119.903 62.2827 116.746 61.856 113.418 61.856C110.005 61.856 106.805 62.2827 103.818 63.136C100.917 63.904 98.314 65.0987 96.01 66.72C93.7913 68.3413 92.042 70.3893 90.762 72.864C89.5673 75.3387 88.97 78.24 88.97 81.568C88.97 85.3227 89.9513 88.8213 91.914 92.064C93.8767 95.3067 96.8207 98.1653 100.746 100.64C104.671 103.115 109.45 105.163 115.082 106.784Z" fill="black" opacity="0.08"/>
<path d="M84 82V81.5H83V82H83.5H84ZM83.5 91H83V91.181L83.1159 91.3201L83.5 91ZM91 100L90.6159 100.32L90.6648 100.379L90.7289 100.42L91 100ZM106.5 110L106.229 110.42L106.287 110.458L106.353 110.478L106.5 110ZM126 116L126.241 115.562L126.196 115.537L126.147 115.522L126 116ZM136 121.5L136.34 121.134L136.295 121.092L136.241 121.062L136 121.5ZM143 128L143.452 127.786L143.411 127.699L143.34 127.634L143 128ZM147.5 137.5L147.992 137.411L147.98 137.346L147.952 137.286L147.5 137.5ZM149.5 148.5L149.993 148.586L150.008 148.498L149.992 148.411L149.5 148.5ZM147.091 160.288C147.25 160.514 147.562 160.568 147.788 160.409L151.468 157.819C151.694 157.66 151.748 157.348 151.589 157.123C151.43 156.897 151.118 156.842 150.892 157.001L147.621 159.303L145.319 156.032C145.16 155.806 144.848 155.752 144.623 155.911C144.397 156.07 144.342 156.382 144.501 156.608L147.091 160.288ZM83.5 82H83V91H83.5H84V82H83.5ZM83.5 91L83.1159 91.3201L90.6159 100.32L91 100L91.3841 99.6799L83.8841 90.6799L83.5 91ZM91 100L90.7289 100.42L106.229 110.42L106.5 110L106.771 109.58L91.2711 99.5799L91 100ZM106.5 110L106.353 110.478L125.853 116.478L126 116L126.147 115.522L106.647 109.522L106.5 110ZM126 116L125.759 116.438L135.759 121.938L136 121.5L136.241 121.062L126.241 115.562L126 116ZM136 121.5L135.66 121.866L142.66 128.366L143 128L143.34 127.634L136.34 121.134L136 121.5ZM143 128L142.548 128.214L147.048 137.714L147.5 137.5L147.952 137.286L143.452 127.786L143 128ZM147.5 137.5L147.008 137.589L149.008 148.589L149.5 148.5L149.992 148.411L147.992 137.411L147.5 137.5ZM149.5 148.5L149.007 148.414L147.007 159.914L147.5 160L147.993 160.086L149.993 148.586L149.5 148.5Z" fill="#86E96A"/>
<path d="M97.92 118.995C97.92 120.097 97.0425 120.99 95.96 120.99C94.8775 120.99 94 120.097 94 118.995C94 117.893 94.8775 117 95.96 117C97.0425 117 97.92 117.893 97.92 118.995Z" fill="#A6A6A1"/>
<path d="M83.92 131.995C83.92 133.097 83.0425 133.99 81.96 133.99C80.8775 133.99 80 133.097 80 131.995C80 130.893 80.8775 130 81.96 130C83.0425 130 83.92 130.893 83.92 131.995Z" fill="#A6A6A1"/>
<path d="M80.92 150.995C80.92 152.097 80.0425 152.99 78.96 152.99C77.8775 152.99 77 152.097 77 150.995C77 149.893 77.8775 149 78.96 149C80.0425 149 80.92 149.893 80.92 150.995Z" fill="#A6A6A1"/>
<path d="M88.92 167.995C88.92 169.097 88.0425 169.99 86.96 169.99C85.8775 169.99 85 169.097 85 167.995C85 166.893 85.8775 166 86.96 166C88.0425 166 88.92 166.893 88.92 167.995Z" fill="#A6A6A1"/>
<path d="M142.92 167.995C142.92 169.097 142.042 169.99 140.96 169.99C139.878 169.99 139 169.097 139 167.995C139 166.893 139.878 166 140.96 166C142.042 166 142.92 166.893 142.92 167.995Z" fill="#A6A6A1"/>
<path d="M125.92 175.995C125.92 177.097 125.042 177.99 123.96 177.99C122.878 177.99 122 177.097 122 175.995C122 174.893 122.878 174 123.96 174C125.042 174 125.92 174.893 125.92 175.995Z" fill="#A6A6A1"/>
<path d="M104.92 175.995C104.92 177.097 104.042 177.99 102.96 177.99C101.878 177.99 101 177.097 101 175.995C101 174.893 101.878 174 102.96 174C104.042 174 104.92 174.893 104.92 175.995Z" fill="#A6A6A1"/>
<path d="M144.92 128.995C144.92 130.097 144.042 130.99 142.96 130.99C141.878 130.99 141 130.097 141 128.995C141 127.893 141.878 127 142.96 127C144.042 127 144.92 127.893 144.92 128.995Z" fill="#A6A6A1"/>
<path d="M150.92 148.995C150.92 150.097 150.042 150.99 148.96 150.99C147.878 150.99 147 150.097 147 148.995C147 147.893 147.878 147 148.96 147C150.042 147 150.92 147.893 150.92 148.995Z" fill="#A6A6A1"/>
<path d="M129.92 105.995C129.92 107.097 129.042 107.99 127.96 107.99C126.878 107.99 126 107.097 126 105.995C126 104.893 126.878 104 127.96 104C129.042 104 129.92 104.893 129.92 105.995Z" fill="#A6A6A1"/>
<path d="M92.92 62.995C92.92 64.0968 92.0425 64.99 90.96 64.99C89.8775 64.99 89 64.0968 89 62.995C89 61.8932 89.8775 61 90.96 61C92.0425 61 92.92 61.8932 92.92 62.995Z" fill="#A6A6A1"/>
<path d="M112.92 55.995C112.92 57.0968 112.042 57.99 110.96 57.99C109.878 57.99 109 57.0968 109 55.995C109 54.8932 109.878 54 110.96 54C112.042 54 112.92 54.8932 112.92 55.995Z" fill="#A6A6A1"/>
<path d="M136.92 62.995C136.92 64.0968 136.042 64.99 134.96 64.99C133.878 64.99 133 64.0968 133 62.995C133 61.8932 133.878 61 134.96 61C136.042 61 136.92 61.8932 136.92 62.995Z" fill="#A6A6A1"/>
<path d="M144.92 76.995C144.92 78.0968 144.042 78.99 142.96 78.99C141.878 78.99 141 78.0968 141 76.995C141 75.8932 141.878 75 142.96 75C144.042 75 144.92 75.8932 144.92 76.995Z" fill="#A6A6A1"/>
<path d="M140.92 95.995C140.92 97.0968 140.042 97.99 138.96 97.99C137.878 97.99 137 97.0968 137 95.995C137 94.8932 137.878 94 138.96 94C140.042 94 140.92 94.8932 140.92 95.995Z" fill="#A6A6A1"/>
<path d="M84.92 80.995C84.92 82.0968 84.0425 82.99 82.96 82.99C81.8775 82.99 81 82.0968 81 80.995C81 79.8932 81.8775 79 82.96 79C84.0425 79 84.92 79.8932 84.92 80.995Z" fill="#86E96A"/>
<path d="M92.92 99.995C92.92 101.097 92.0425 101.99 90.96 101.99C89.8775 101.99 89 101.097 89 99.995C89 98.8932 89.8775 98 90.96 98C92.0425 98 92.92 98.8932 92.92 99.995Z" fill="#A6A6A1"/>
<path d="M108.92 109.995C108.92 111.097 108.042 111.99 106.96 111.99C105.878 111.99 105 111.097 105 109.995C105 108.893 105.878 108 106.96 108C108.042 108 108.92 108.893 108.92 109.995Z" fill="#A6A6A1"/>
<path d="M127.92 115.995C127.92 117.097 127.042 117.99 125.96 117.99C124.878 117.99 124 117.097 124 115.995C124 114.893 124.878 114 125.96 114C127.042 114 127.92 114.893 127.92 115.995Z" fill="#A6A6A1"/>
</svg>
