<svg width="227" height="188" viewBox="0 0 227 188" fill="none" xmlns="http://www.w3.org/2000/svg">
<path d="M107.719 182.432C103.708 182.432 100.081 181.792 96.8385 180.512C93.6812 179.232 90.9932 177.653 88.7745 175.776C86.5558 173.899 84.8492 172.107 83.6545 170.4C82.8012 168.949 82.4172 167.669 82.5025 166.56C82.5878 165.365 83.3985 164.256 84.9345 163.232C86.3852 162.037 87.6225 161.653 88.6465 162.08C89.7558 162.421 90.9078 163.232 92.1025 164.512C93.9798 166.389 96.1132 168.053 98.5025 169.504C100.977 170.869 104.177 171.552 108.103 171.552C111.772 171.552 114.972 170.741 117.703 169.12C120.519 167.413 122.737 164.64 124.359 160.8C125.98 156.875 126.791 151.627 126.791 145.056V65.952C125.511 66.8053 124.017 67.5307 122.311 68.128C120.604 68.64 118.855 68.896 117.063 68.896C115.271 68.896 113.649 68.7253 112.199 68.384C110.748 68.0427 109.34 67.6587 107.975 67.232C106.609 66.8053 105.287 66.4213 104.007 66.08C102.727 65.7387 101.404 65.568 100.039 65.568C98.5878 65.568 97.2652 65.952 96.0705 66.72C94.8758 67.4027 93.9372 68.4267 93.2545 69.792C92.5718 71.072 92.2305 72.608 92.2305 74.4C92.2305 75.5947 91.8038 76.6187 90.9505 77.472C90.1825 78.24 88.8172 78.624 86.8545 78.624C84.9772 78.624 83.6545 78.24 82.8865 77.472C82.2038 76.6187 81.8625 75.5947 81.8625 74.4C81.8625 70.3893 82.5878 66.9333 84.0385 64.032C85.4892 61.1307 87.5798 58.8693 90.3105 57.248C93.0412 55.6267 96.2412 54.816 99.9105 54.816C101.873 54.816 103.665 54.9867 105.287 55.328C106.908 55.6693 108.444 56.096 109.895 56.608C111.345 57.0347 112.753 57.4187 114.119 57.76C115.569 58.1013 117.02 58.272 118.471 58.272C120.177 58.272 121.756 57.888 123.207 57.12C124.743 56.352 126.023 55.5413 127.047 54.688C128.156 53.664 129.137 52.9387 129.991 52.512C130.844 52.0853 131.868 51.872 133.063 51.872C134.684 51.872 135.879 52.1707 136.647 52.768C137.5 53.28 137.927 54.1333 137.927 55.328V146.208C137.927 154.229 136.604 160.928 133.959 166.304C131.399 171.68 127.857 175.733 123.335 178.464C118.812 181.109 113.607 182.432 107.719 182.432Z" fill="black" opacity="0.08"/>
<path d="M134.92 71.995C134.92 73.0968 134.042 73.99 132.96 73.99C131.878 73.99 131 73.0968 131 71.995C131 70.8932 131.878 70 132.96 70C134.042 70 134.92 70.8932 134.92 71.995Z" fill="#A6A6A1"/>
<path d="M134.92 86.995C134.92 88.0968 134.042 88.99 132.96 88.99C131.878 88.99 131 88.0968 131 86.995C131 85.8932 131.878 85 132.96 85C134.042 85 134.92 85.8932 134.92 86.995Z" fill="#A6A6A1"/>
<path d="M134.92 101.995C134.92 103.097 134.042 103.99 132.96 103.99C131.878 103.99 131 103.097 131 101.995C131 100.893 131.878 100 132.96 100C134.042 100 134.92 100.893 134.92 101.995Z" fill="#86E96A"/>
<path d="M134.92 116.995C134.92 118.097 134.042 118.99 132.96 118.99C131.878 118.99 131 118.097 131 116.995C131 115.893 131.878 115 132.96 115C134.042 115 134.92 115.893 134.92 116.995Z" fill="#A6A6A1"/>
<path d="M134.92 131.995C134.92 133.097 134.042 133.99 132.96 133.99C131.878 133.99 131 133.097 131 131.995C131 130.893 131.878 130 132.96 130C134.042 130 134.92 130.893 134.92 131.995Z" fill="#A6A6A1"/>
<path d="M134.92 146.995C134.92 148.097 134.042 148.99 132.96 148.99C131.878 148.99 131 148.097 131 146.995C131 145.893 131.878 145 132.96 145C134.042 145 134.92 145.893 134.92 146.995Z" fill="#A6A6A1"/>
<path d="M130.92 162.995C130.92 164.097 130.042 164.99 128.96 164.99C127.878 164.99 127 164.097 127 162.995C127 161.893 127.878 161 128.96 161C130.042 161 130.92 161.893 130.92 162.995Z" fill="#A6A6A1"/>
<path d="M134.92 56.995C134.92 58.0968 134.042 58.99 132.96 58.99C131.878 58.99 131 58.0968 131 56.995C131 55.8932 131.878 55 132.96 55C134.042 55 134.92 55.8932 134.92 56.995Z" fill="#A6A6A1"/>
<path d="M122.92 62.995C122.92 64.0968 122.042 64.99 120.96 64.99C119.878 64.99 119 64.0968 119 62.995C119 61.8932 119.878 61 120.96 61C122.042 61 122.92 61.8932 122.92 62.995Z" fill="#A6A6A1"/>
<path d="M109.92 61.995C109.92 63.0968 109.042 63.99 107.96 63.99C106.878 63.99 106 63.0968 106 61.995C106 60.8932 106.878 60 107.96 60C109.042 60 109.92 60.8932 109.92 61.995Z" fill="#A6A6A1"/>
<path d="M97.92 60.995C97.92 62.0968 97.0425 62.99 95.96 62.99C94.8775 62.99 94 62.0968 94 60.995C94 59.8932 94.8775 59 95.96 59C97.0425 59 97.92 59.8932 97.92 60.995Z" fill="#A6A6A1"/>
<path d="M89.92 71.995C89.92 73.0968 89.0425 73.99 87.96 73.99C86.8775 73.99 86 73.0968 86 71.995C86 70.8932 86.8775 70 87.96 70C89.0425 70 89.92 70.8932 89.92 71.995Z" fill="#86E96A"/>
<path d="M121.92 174.995C121.92 176.097 121.042 176.99 119.96 176.99C118.878 176.99 118 176.097 118 174.995C118 173.893 118.878 173 119.96 173C121.042 173 121.92 173.893 121.92 174.995Z" fill="#A6A6A1"/>
<path d="M105.92 176.995C105.92 178.097 105.042 178.99 103.96 178.99C102.878 178.99 102 178.097 102 176.995C102 175.893 102.878 175 103.96 175C105.042 175 105.92 175.893 105.92 176.995Z" fill="#A6A6A1"/>
<path d="M91.92 168.995C91.92 170.097 91.0425 170.99 89.96 170.99C88.8775 170.99 88 170.097 88 168.995C88 167.893 88.8775 167 89.96 167C91.0425 167 91.92 167.893 91.92 168.995Z" fill="#A6A6A1"/>
<path d="M134 102V101.5H133V102H133.5H134ZM133.5 146.5L133.994 146.578L134 146.539V146.5H133.5ZM132 156L132.467 156.179L132.486 156.13L132.494 156.078L132 156ZM129.5 162.5L129.924 162.765L129.949 162.724L129.967 162.679L129.5 162.5ZM124.013 170.612C124.075 170.882 124.343 171.049 124.612 170.987L128.997 169.975C129.266 169.913 129.434 169.645 129.372 169.376C129.31 169.107 129.041 168.939 128.772 169.001L124.875 169.9L123.975 166.003C123.913 165.734 123.645 165.566 123.376 165.628C123.107 165.69 122.939 165.959 123.001 166.228L124.013 170.612ZM133.5 102H133V117H133.5H134V102H133.5ZM133.5 117H133V131.5H133.5H134V117H133.5ZM133.5 131.5H133V146.5H133.5H134V131.5H133.5ZM133.5 146.5L133.006 146.422L131.506 155.922L132 156L132.494 156.078L133.994 146.578L133.5 146.5ZM132 156L131.533 155.821L129.033 162.321L129.5 162.5L129.967 162.679L132.467 156.179L132 156ZM129.5 162.5L129.076 162.235L124.076 170.235L124.5 170.5L124.924 170.765L129.924 162.765L129.5 162.5Z" fill="#86E96A"/>
<path d="M87.5149 71.3787L87.3937 71.8638L88.3638 72.1063L88.4851 71.6213L88 71.5L87.5149 71.3787ZM89.5 65.5L89.2 65.1L89.058 65.2065L89.0149 65.3787L89.5 65.5ZM95.5 61L95.3787 60.5149L95.2808 60.5394L95.2 60.6L95.5 61ZM101.5 59.5L101.612 59.0128L101.495 58.9858L101.379 59.0149L101.5 59.5ZM108 61L108.192 60.5385L108.153 60.5223L108.112 60.5128L108 61ZM114.19 63.9623C114.446 63.8572 114.567 63.565 114.462 63.3096L112.749 59.1486C112.644 58.8932 112.352 58.7715 112.096 58.8766C111.841 58.9818 111.719 59.274 111.824 59.5293L113.347 63.228L109.649 64.751C109.393 64.8562 109.271 65.1484 109.377 65.4037C109.482 65.6591 109.774 65.7809 110.029 65.6757L114.19 63.9623ZM88 71.5L88.4851 71.6213L89.9851 65.6213L89.5 65.5L89.0149 65.3787L87.5149 71.3787L88 71.5ZM89.5 65.5L89.8 65.9L95.8 61.4L95.5 61L95.2 60.6L89.2 65.1L89.5 65.5ZM95.5 61L95.6213 61.4851L101.621 59.9851L101.5 59.5L101.379 59.0149L95.3787 60.5149L95.5 61ZM101.5 59.5L101.388 59.9872L107.888 61.4872L108 61L108.112 60.5128L101.612 59.0128L101.5 59.5ZM108 61L107.808 61.4615L113.808 63.9615L114 63.5L114.192 63.0385L108.192 60.5385L108 61Z" fill="#86E96A"/>
</svg>
