<svg width="227" height="163" viewBox="0 0 227 163" fill="none" xmlns="http://www.w3.org/2000/svg">
<path d="M123.755 157.432C115.563 157.432 108.181 155.853 101.611 152.696C95.1252 149.453 89.5785 144.931 84.9705 139.128C80.3625 133.24 76.7785 126.328 74.2185 118.392C71.7438 110.371 70.5065 101.581 70.5065 92.024C70.5065 85.7093 71.0612 79.736 72.1705 74.104C73.3652 68.3867 75.0292 63.096 77.1625 58.232C79.2958 53.368 81.8985 49.016 84.9705 45.176C88.1278 41.336 91.6692 38.0507 95.5945 35.32C99.6052 32.5893 104 30.4987 108.779 29.048C113.557 27.5973 118.677 26.872 124.139 26.872C128.491 26.872 132.843 27.4267 137.195 28.536C141.632 29.56 145.813 31.352 149.739 33.912C153.749 36.472 157.333 40.056 160.491 44.664C161.259 45.8587 161.515 46.8827 161.259 47.736C161.003 48.504 160.277 49.3573 159.083 50.296C157.888 51.32 156.821 51.9173 155.883 52.088C155.029 52.2587 154.133 51.832 153.195 50.808C149.44 46.6267 145.088 43.4267 140.139 41.208C135.275 38.904 129.941 37.752 124.139 37.752C120.043 37.752 116.203 38.3067 112.619 39.416C109.035 40.5253 105.664 42.1467 102.507 44.28C99.4345 46.4133 96.6612 49.0587 94.1865 52.216C91.7972 55.288 89.7065 58.8293 87.9145 62.84C86.1225 66.8507 84.7572 71.3307 83.8185 76.28C82.9652 81.144 82.5385 86.392 82.5385 92.024C82.5385 100.643 83.5198 108.323 85.4825 115.064C87.5305 121.805 90.3892 127.523 94.0585 132.216C97.7278 136.909 102.08 140.493 107.115 142.968C112.149 145.357 117.696 146.552 123.755 146.552C126.912 146.552 129.899 146.125 132.715 145.272C135.616 144.419 138.347 143.224 140.907 141.688C143.552 140.152 146.027 138.317 148.331 136.184C150.72 134.051 153.024 131.661 155.243 129.016C156.096 127.992 157.035 127.565 158.059 127.736C159.168 127.821 160.277 128.333 161.387 129.272C162.581 130.211 163.264 131.149 163.435 132.088C163.691 132.941 163.435 133.88 162.667 134.904C158.997 140.195 155.029 144.504 150.763 147.832C146.581 151.16 142.187 153.592 137.579 155.128C133.056 156.664 128.448 157.432 123.755 157.432ZM116.84 21.368C115.901 21.368 114.877 20.8133 113.768 19.704C112.658 18.5093 112.104 17.4853 112.104 16.632C112.104 16.2907 112.146 15.9493 112.232 15.608C112.317 15.2667 112.616 14.84 113.128 14.328L131.304 -4.23201C131.73 -4.65868 132.114 -5.00001 132.456 -5.25601C132.882 -5.51201 133.352 -5.64001 133.864 -5.64001C134.717 -5.64001 135.656 -5.25601 136.68 -4.48801C137.789 -3.72001 138.728 -2.78135 139.496 -1.67201C140.349 -0.648005 140.776 0.290665 140.776 1.144C140.776 1.74133 140.648 2.25333 140.392 2.67999C140.221 3.10666 139.709 3.66133 138.856 4.34399L119.272 20.088C118.76 20.4293 118.333 20.728 117.992 20.984C117.565 21.24 117.181 21.368 116.84 21.368Z" fill="black" opacity="0.08"/>
<path d="M160.92 131.99C160.92 133.092 160.042 133.985 158.96 133.985C157.878 133.985 157 133.092 157 131.99C157 130.888 157.878 129.995 158.96 129.995C160.042 129.995 160.92 130.888 160.92 131.99Z" fill="#86E96A"/>
<path d="M150.92 140.99C150.92 142.092 150.042 142.985 148.96 142.985C147.878 142.985 147 142.092 147 140.99C147 139.888 147.878 138.995 148.96 138.995C150.042 138.995 150.92 139.888 150.92 140.99Z" fill="#A6A6A1"/>
<path d="M136.92 149.99C136.92 151.092 136.042 151.985 134.96 151.985C133.878 151.985 133 151.092 133 149.99C133 148.888 133.878 147.995 134.96 147.995C136.042 147.995 136.92 148.888 136.92 149.99Z" fill="#A6A6A1"/>
<path d="M118.92 150.99C118.92 152.092 118.042 152.985 116.96 152.985C115.878 152.985 115 152.092 115 150.99C115 149.888 115.878 148.995 116.96 148.995C118.042 148.995 118.92 149.888 118.92 150.99Z" fill="#A6A6A1"/>
<path d="M102.92 144.99C102.92 146.092 102.042 146.985 100.96 146.985C99.8775 146.985 99 146.092 99 144.99C99 143.888 99.8775 142.995 100.96 142.995C102.042 142.995 102.92 143.888 102.92 144.99Z" fill="#A6A6A1"/>
<path d="M88.92 130.99C88.92 132.092 88.0425 132.985 86.96 132.985C85.8775 132.985 85 132.092 85 130.99C85 129.888 85.8775 128.995 86.96 128.995C88.0425 128.995 88.92 129.888 88.92 130.99Z" fill="#A6A6A1"/>
<path d="M80.92 113.99C80.92 115.092 80.0425 115.985 78.96 115.985C77.8775 115.985 77 115.092 77 113.99C77 112.888 77.8775 111.995 78.96 111.995C80.0425 111.995 80.92 112.888 80.92 113.99Z" fill="#A6A6A1"/>
<path d="M78.92 94.99C78.92 96.0918 78.0425 96.985 76.96 96.985C75.8775 96.985 75 96.0918 75 94.99C75 93.8882 75.8775 92.995 76.96 92.995C78.0425 92.995 78.92 93.8882 78.92 94.99Z" fill="#A6A6A1"/>
<path d="M78.92 75.99C78.92 77.0918 78.0425 77.985 76.96 77.985C75.8775 77.985 75 77.0918 75 75.99C75 74.8882 75.8775 73.995 76.96 73.995C78.0425 73.995 78.92 74.8882 78.92 75.99Z" fill="#A6A6A1"/>
<path d="M84.92 59.99C84.92 61.0918 84.0425 61.985 82.96 61.985C81.8775 61.985 81 61.0918 81 59.99C81 58.8882 81.8775 57.995 82.96 57.995C84.0425 57.995 84.92 58.8882 84.92 59.99Z" fill="#A6A6A1"/>
<path d="M95.92 43.99C95.92 45.0918 95.0425 45.985 93.96 45.985C92.8775 45.985 92 45.0918 92 43.99C92 42.8882 92.8775 41.995 93.96 41.995C95.0425 41.995 95.92 42.8882 95.92 43.99Z" fill="#A6A6A1"/>
<path d="M112.92 32.99C112.92 34.0918 112.042 34.985 110.96 34.985C109.878 34.985 109 34.0918 109 32.99C109 31.8882 109.878 30.995 110.96 30.995C112.042 30.995 112.92 31.8882 112.92 32.99Z" fill="#A6A6A1"/>
<path d="M117.92 16.995C117.92 18.0968 117.042 18.99 115.96 18.99C114.878 18.99 114 18.0968 114 16.995C114 15.8932 114.878 15 115.96 15C117.042 15 117.92 15.8932 117.92 16.995Z" fill="#A6A6A1"/>
<path d="M126.92 8.995C126.92 10.0968 126.042 10.99 124.96 10.99C123.878 10.99 123 10.0968 123 8.995C123 7.89319 123.878 7 124.96 7C126.042 7 126.92 7.89319 126.92 8.995Z" fill="#A6A6A1"/>
<path d="M135.92 -0.005C135.92 1.09681 135.042 1.99 133.96 1.99C132.878 1.99 132 1.09681 132 -0.005C132 -1.10681 132.878 -2 133.96 -2C135.042 -2 135.92 -1.10681 135.92 -0.005Z" fill="#A6A6A1"/>
<path d="M130.5 31.995C130.5 33.0968 129.623 33.99 128.54 33.99C127.458 33.99 126.58 33.0968 126.58 31.995C126.58 30.8932 127.458 30 128.54 30C129.623 30 130.5 30.8932 130.5 31.995Z" fill="#A6A6A1"/>
<path d="M157.92 45.99C157.92 47.0918 157.042 47.985 155.96 47.985C154.878 47.985 154 47.0918 154 45.99C154 44.8882 154.878 43.995 155.96 43.995C157.042 43.995 157.92 44.8882 157.92 45.99Z" fill="#A6A6A1"/>
<path d="M145 36.2502C145 37.3521 144.122 38.2452 143.04 38.2452C141.957 38.2452 141.08 37.3521 141.08 36.2502C141.08 35.1484 141.957 34.2552 143.04 34.2552C144.122 34.2552 145 35.1484 145 36.2502Z" fill="#A6A6A1"/>
<path d="M118.529 150.827C118.436 151.087 118.572 151.373 118.832 151.466L123.072 152.975C123.332 153.068 123.618 152.932 123.71 152.672C123.803 152.412 123.667 152.126 123.407 152.033L119.639 150.692L120.98 146.923C121.073 146.663 120.937 146.377 120.677 146.285C120.417 146.192 120.131 146.328 120.038 146.588L118.529 150.827ZM159 132L158.786 131.548L118.786 150.543L119 150.995L119.214 151.447L159.214 132.452L159 132Z" fill="#86E96A"/>
<path d="M127.486 33.1114C127.551 32.8429 127.385 32.573 127.116 32.5087L122.74 31.4609C122.472 31.3966 122.202 31.5622 122.137 31.8307C122.073 32.0993 122.239 32.3691 122.507 32.4334L126.397 33.3648L125.466 37.2549C125.402 37.5234 125.567 37.7932 125.836 37.8576C126.104 37.9219 126.374 37.7563 126.438 37.4877L127.486 33.1114ZM83 59.995L83.2615 60.4212L127.262 33.4212L127 32.995L126.738 32.5688L82.7385 59.5688L83 59.995Z" fill="#86E96A"/>
</svg>
